PathFileType	4	(X/Y/Z)	/Users/itak/Documents/Research/Walk-IL/dataset/trc/00264_00009.trc
DataRate	CameraRate	NumFrames	NumMarkers	Units	OrigDataRate	OrigDataStartFrame	OrigNumFrames
100.000000	100.000000	4	53	mm	100.000000	244	488
Frame#	Time	RPSI			LPSI			L3			STRN			T10			C7			CLAV			RBAK			LBAK			LSHO			LUPA			LAEL			LAOL			LWTS			LWPS			LFRA			LIFD			LHPS			LHTS			RSHO			RUPA			RAEL			RAOL			RWTS			RWPS			RFRA			RIFD			RHTS			RHPS			RBHD			LFHD			RFHD			LBHD			LHIP			RHIP			RASI			LASI			LKNE			LTHI			LANK			LTIP			LTOE			LMT1			LMT5			LHEE			RKNE			RTHI			RANK			RTIP			RTOE			RMT1			RMT5			RHEE			
		X1	Y1	Z1	X2	Y2	Z2	X3	Y3	Z3	X4	Y4	Z4	X5	Y5	Z5	X6	Y6	Z6	X7	Y7	Z7	X8	Y8	Z8	X9	Y9	Z9	X10	Y10	Z10	X11	Y11	Z11	X12	Y12	Z12	X13	Y13	Z13	X14	Y14	Z14	X15	Y15	Z15	X16	Y16	Z16	X17	Y17	Z17	X18	Y18	Z18	X19	Y19	Z19	X20	Y20	Z20	X21	Y21	Z21	X22	Y22	Z22	X23	Y23	Z23	X24	Y24	Z24	X25	Y25	Z25	X26	Y26	Z26	X27	Y27	Z27	X28	Y28	Z28	X29	Y29	Z29	X30	Y30	Z30	X31	Y31	Z31	X32	Y32	Z32	X33	Y33	Z33	X34	Y34	Z34	X35	Y35	Z35	X36	Y36	Z36	X37	Y37	Z37	X38	Y38	Z38	X39	Y39	Z39	X40	Y40	Z40	X41	Y41	Z41	X42	Y42	Z42	X43	Y43	Z43	X44	Y44	Z44	X45	Y45	Z45	X46	Y46	Z46	X47	Y47	Z47	X48	Y48	Z48	X49	Y49	Z49	X50	Y50	Z50	X51	Y51	Z51	X52	Y52	Z52	X53	Y53	Z53	

245	2.44	-669.2357788085938	1023.0263671875	452.2559814453125	-754.62744140625	1030.752197265625	368.4064331054688	-722.8015747070312	1115.48291015625	402.2184143066406	-550.4510498046875	1302.668579101562	216.0680236816406	-716.6347045898438	1241.259765625	411.7955627441406	-676.12744140625	1502.642333984375	362.3868408203125	-566.1973876953125	1420.714599609375	236.5140380859375	-669.1402587890625	1364.0068359375	466.7516479492188	-773.3787231445312	1465.038330078125	305.9757690429688	-757.7952880859375	1465.912231445312	202.0221557617188	-839.2576904296875	1349.284301757812	173.6895141601562	-859.5457153320312	1140.563110351562	141.7440795898438	-863.1707763671875	1119.223876953125	226.6051788330078	-736.5036010742188	923.782958984375	81.46758270263672	-813.29052734375	901.767578125	51.36751174926758	-849.4017333984375	1036.59228515625	106.403694152832	-718.5546875	734.6804809570312	54.24431228637695	-788.6010131835938	817.2682495117188	30.44669723510742	-721.681640625	830.6245727539062	29.05253791809082	-509.9308776855469	1463.591674804688	428.5169677734375	-472.1257019042969	1398.634399414062	486.1286315917969	-450.3309326171875	1119.565185546875	531.4208374023438	-538.7731323242188	1112.479125976562	497.3168334960938	-392.2137756347656	906.5887451171875	397.4500122070312	-375.8238830566406	890.9443359375	478.9752197265625	-421.9478149414062	1051.2294921875	518.8157348632812	-380.2396240234375	718.021240234375	374.23388671875	-347.9338073730469	790.7100219726562	371.8927612304688	-342.8571166992188	786.3016357421875	444.3614807128906	-592.8546752929688	1657.395629882812	361.930908203125	-571.320068359375	1698.97705078125	139.2153930664062	-485.3063659667969	1697.680786132812	191.0258941650391	-683.7879638671875	1665.03564453125	254.8523864746094	-780.0133666992188	976.6507568359375	193.6053314208984	-525.0516357421875	983.069580078125	457.9020080566406	-481.8215637207031	1031.223266601562	364.3613586425781	-674.8010864257812	1021.267517089844	162.0023498535156	-625.1080322265625	506.234375	158.5293884277344	-681.0899047851562	643.4298706054688	154.0738677978516	-634.5675048828125	35.93121337890625	266.7153930664062	-636.0631713867188	275.5262756347656	206.7188873291016	-467.9030456542969	44.65866470336914	117.9389801025391	-471.9510803222656	36.59006881713867	197.3600769042969	-576.2719116210938	41.45202255249023	151.5618438720703	-624.2159423828125	40.24377822875977	345.8897705078125	-479.184814453125	495.7002563476562	408.4250183105469	-469.9368591308594	763.7500610351562	414.247802734375	-784.0123901367188	192.9257659912109	655.410400390625	-529.957763671875	392.2115173339844	438.5843200683594	-677.3984985351562	61.16899490356445	529.7279663085938	-739.0814819335938	93.23062133789062	518.6099243164062	-708.8215942382812	114.6627044677734	631.736572265625	-851.6095581054688	238.3379516601562	632.15380859375	
246	2.45	-664.3672485351562	1023.705444335938	447.7842712402344	-750.2825317382812	1031.483642578125	364.3785400390625	-718.4779663085938	1116.339599609375	397.8140258789062	-546.3716430664062	1303.377563476562	211.1303405761719	-712.3421630859375	1242.291015625	406.7712707519531	-671.635498046875	1503.555419921875	357.3508911132812	-561.800537109375	1421.48828125	231.5313262939453	-664.7453002929688	1364.897583007812	461.7444458007812	-768.9968872070312	1466.172607421875	300.854736328125	-753.1263427734375	1467.048095703125	196.9851379394531	-834.27734375	1350.595947265625	167.6361083984375	-853.49853515625	1142.094848632812	133.3139495849609	-858.0320434570312	1119.793090820312	217.8843688964844	-727.3727416992188	927.54296875	71.82383728027344	-803.4280395507812	905.1599731445312	40.25148773193359	-841.8121948242188	1038.736572265625	96.74272918701172	-706.7282104492188	739.1643676757812	41.63718032836914	-777.42138671875	821.3060913085938	18.25918197631836	-710.6624145507812	835.4956665039062	18.04693794250488	-505.499267578125	1464.317749023438	423.4873046875	-467.723876953125	1399.366333007812	481.1087341308594	-445.9169616699219	1120.241455078125	526.33837890625	-534.2753295898438	1113.081298828125	492.0390319824219	-387.0150756835938	907.9580688476562	391.6714172363281	-370.9494323730469	891.877197265625	473.2175598144531	-417.3837280273438	1051.951416015625	513.5737915039062	-374.1536865234375	719.6365966796875	367.3663024902344	-342.1100769042969	792.4577026367188	365.6874694824219	-337.4227905273438	787.5869750976562	438.1298828125	-587.7815551757812	1658.19580078125	356.8146362304688	-567.06591796875	1699.675415039062	134.0055236816406	-480.8452758789062	1698.289672851562	185.4735412597656	-679.1005249023438	1665.898803710938	250.0935821533203	-777.1012573242188	977.2330932617188	189.947998046875	-520.0877075195312	984.017578125	452.1934814453125	-477.5556335449219	1032.015625	358.3365173339844	-672.0679321289062	1022.012451171875	157.2177429199219	-624.3666381835938	505.8858642578125	157.2283020019531	-679.6279907226562	643.3582153320312	152.0395050048828	-634.559814453125	35.94274139404297	266.761962890625	-635.6917724609375	275.4092407226562	206.2268829345703	-467.9266967773438	44.7310905456543	118.0299758911133	-471.9949951171875	36.5413818359375	197.4087219238281	-576.243896484375	41.54573822021484	151.6332550048828	-624.201171875	40.17467498779297	345.9876098632812	-467.2981567382812	497.4659729003906	396.3779907226562	-462.4927062988281	765.4664306640625	406.0946350097656	-767.5078125	193.1015319824219	645.3927001953125	-516.9090576171875	393.8477478027344	426.3781127929688	-660.87109375	62.83039855957031	518.2755737304688	-723.02490234375	94.13099670410156	507.9912414550781	-691.5191650390625	115.9894561767578	620.7125854492188	-835.9456787109375	237.6396789550781	623.0535278320312	
247	2.46	-659.498046875	1024.43603515625	443.3578796386719	-745.9738159179688	1032.220092773438	360.4413757324219	-714.1974487304688	1117.197509765625	393.4896240234375	-542.381591796875	1304.073974609375	206.2129058837891	-708.1315307617188	1243.317504882812	401.795166015625	-667.1914672851562	1504.44677734375	352.36328125	-557.4725952148438	1422.24853515625	226.5683898925781	-660.3648071289062	1365.772827148438	456.77783203125	-764.672607421875	1467.3017578125	295.7913513183594	-748.5222778320312	1468.198974609375	192.0089416503906	-829.366943359375	1351.939208984375	161.6377410888672	-847.4607543945312	1143.693603515625	124.9229736328125	-852.9061279296875	1120.409790039062	209.1730041503906	-718.2843017578125	931.4050903320312	62.26194763183594	-793.5842895507812	908.7149047851562	29.2082462310791	-834.2346801757812	1040.986572265625	87.13072967529297	-695.0186767578125	743.801513671875	29.24677848815918	-766.2974243164062	825.519287109375	6.20204496383667	-699.7034912109375	840.4813842773438	7.210052490234375	-501.0880432128906	1465.030639648438	418.4648742675781	-463.3445434570312	1400.085083007812	476.08642578125	-441.5304565429688	1120.903686523438	521.2503051757812	-529.8252563476562	1113.683227539062	486.7893371582031	-381.8464050292969	909.3052978515625	385.9114990234375	-366.0980834960938	892.8049926757812	467.4769592285156	-412.8552551269531	1052.667358398438	508.328125	-368.1436767578125	721.2194213867188	360.5696105957031	-336.3497009277344	794.1635131835938	359.522705078125	-332.0409240722656	788.8565063476562	431.9483947753906	-582.7329711914062	1659.0009765625	351.6935119628906	-562.7860717773438	1700.31298828125	128.7879486083984	-476.3780212402344	1698.821411132812	179.9292144775391	-674.4221801757812	1666.771240234375	245.3153686523438	-774.2543334960938	977.746826171875	186.4197082519531	-515.1253051757812	985.0761108398438	446.4875793457031	-473.3607177734375	1032.850708007812	352.2897338867188	-669.462646484375	1022.708435058594	152.5124053955078	-623.7046508789062	505.536376953125	155.9935150146484	-678.2734985351562	643.2614135742188	150.1111755371094	-634.5516967773438	35.95804214477539	266.813232421875	-635.35791015625	275.3048400878906	205.7702941894531	-467.9589538574219	44.80941772460938	118.1191864013672	-472.0359497070312	36.49590301513672	197.4555511474609	-576.2186279296875	41.64121627807617	151.7094421386719	-624.1832885742188	40.10507202148438	346.09326171875	-455.8768310546875	499.4458312988281	384.2897338867188	-455.1986694335938	767.282958984375	398.0003967285156	-750.26416015625	191.9307403564453	634.8489379882812	-504.0768127441406	395.5258483886719	414.0188903808594	-643.3591918945312	64.04194641113281	505.8171081542969	-706.0889892578125	94.28102111816406	496.50341796875	-673.2649536132812	116.3127975463867	608.852783203125	-819.6759033203125	235.4220275878906	613.6311645507812	
248	2.47	-654.618896484375	1025.205200195312	438.9719543457031	-741.6797485351562	1032.9599609375	356.5829467773438	-709.9452514648438	1118.049438476562	389.2362060546875	-538.4718627929688	1304.756591796875	201.3017730712891	-703.9945068359375	1244.328857421875	396.8719787597656	-662.7931518554688	1505.309814453125	347.4158325195312	-553.2122192382812	1422.990966796875	221.6155853271484	-655.9950561523438	1366.621459960938	451.8401794433594	-760.4039916992188	1468.41455078125	290.783203125	-743.9873046875	1469.354370117188	187.0887603759766	-824.532958984375	1353.302490234375	155.7001495361328	-841.451904296875	1145.34765625	116.5986099243164	-847.800048828125	1121.068359375	200.4969635009766	-709.2578735351562	935.36376953125	52.79074859619141	-783.7843017578125	912.4141235351562	18.27346038818359	-826.6940307617188	1043.327026367188	77.59811401367188	-683.4166870117188	748.5885009765625	17.07789039611816	-755.2481079101562	829.8919677734375	-5.694023132324219	-688.8250122070312	845.5784912109375	-3.455448389053345	-496.6920776367188	1465.725341796875	413.4396362304688	-458.9797668457031	1400.785400390625	471.0494995117188	-437.1568298339844	1121.547973632812	516.1469116210938	-525.404296875	1114.281616210938	481.5650634765625	-376.7254638671875	910.6121826171875	380.1662902832031	-361.2646789550781	893.7207641601562	461.7455139160156	-408.3462829589844	1053.3740234375	503.0703430175781	-362.2600402832031	722.7443237304688	353.8633728027344	-330.6931457519531	795.7975463867188	353.3962097167969	-326.7265319824219	790.0924682617188	425.8121337890625	-577.7168579101562	1659.804443359375	346.5665588378906	-558.4925537109375	1700.893188476562	123.5627365112305	-471.9151611328125	1699.2802734375	174.3916473388672	-669.7626342773438	1667.647827148438	240.5182342529297	-771.45361328125	978.19287109375	183.0034942626953	-510.15771484375	986.2214965820312	440.7705993652344	-469.2307739257812	1033.715576171875	346.2208251953125	-666.9759521484375	1023.340515136719	147.8916015625	-623.1226196289062	505.1845703125	154.8187408447266	-677.0162963867188	643.1438598632812	148.2816162109375	-634.5433959960938	35.97625732421875	266.8686828613281	-635.0615844726562	275.2115478515625	205.3431549072266	-468.0028686523438	44.89340591430664	118.2048873901367	-472.0703430175781	36.4576416015625	197.5002288818359	-576.1986083984375	41.73530197143555	151.7886047363281	-624.1651000976562	40.03678512573242	346.2050476074219	-444.9238586425781	501.6008911132812	372.1773071289062	-448.0719604492188	769.18017578125	389.97412109375	-732.3292236328125	189.4797973632812	623.7757568359375	-491.4845886230469	397.2147216796875	401.514892578125	-624.9664306640625	64.77911376953125	492.3711242675781	-688.3641357421875	93.70869445800781	484.1598205566406	-654.1611328125	115.6762161254883	596.1668090820312	-802.81884765625	231.7586822509766	603.8778686523438	
